<?xml version="1.0" encoding="UTF-8"?><svg id="Layer_1" xmlns="http://www.w3.org/2000/svg" xmlns:xlink="http://www.w3.org/1999/xlink" viewBox="0 0 818 677"><defs><style>.cls-1{fill:#0052a2;}.cls-2{fill:#fff;}.cls-3{fill:none;stroke:#0052a2;stroke-width:2px;}.cls-4{fill:url(#radial-gradient);}</style><radialGradient id="radial-gradient" cx="208.59" cy="538.49" fx="208.59" fy="538.49" r="1" gradientTransform="translate(-219833 -70269) rotate(90) scale(338.5 -409)" gradientUnits="userSpaceOnUse"><stop offset="0" stop-color="#b6e0f5"/><stop offset="1" stop-color="#fff" stop-opacity="0"/></radialGradient></defs><rect class="cls-4" width="818" height="677"/><circle class="cls-2" cx="408.5" cy="162.5" r="97.5"/><circle class="cls-2" cx="255.5" cy="436.5" r="97.5"/><circle class="cls-2" cx="570.5" cy="436.5" r="97.5"/><path d="M373.04,156h2.7v11.6h5.9v2.4h-8.6v-14Zm18.67,12.46c-.47,.56-1.06,.99-1.78,1.3-.71,.29-1.44,.44-2.2,.44-.72,0-1.39-.12-2.02-.36-.61-.24-1.15-.58-1.6-1.02-.45-.44-.81-.97-1.08-1.58-.25-.63-.38-1.32-.38-2.08,0-.68,.11-1.32,.32-1.92,.23-.61,.55-1.15,.96-1.62,.41-.47,.91-.83,1.48-1.1,.59-.28,1.24-.42,1.96-.42,.67,0,1.28,.13,1.84,.4s1.04,.63,1.44,1.08c.41,.44,.73,.96,.96,1.56,.23,.6,.34,1.24,.34,1.92,0,.28-.02,.53-.06,.74h-6.72c.04,.35,.13,.66,.28,.94,.15,.28,.33,.52,.56,.72,.24,.2,.51,.36,.8,.48,.31,.11,.63,.16,.98,.16,.56,0,1.05-.12,1.46-.36,.43-.25,.75-.51,.98-.76l1.48,1.48Zm-2.42-4.56c-.03-.21-.09-.42-.2-.62-.09-.21-.23-.4-.4-.56-.16-.16-.35-.29-.58-.38-.23-.09-.47-.14-.74-.14-.55,0-1.01,.17-1.4,.52-.39,.35-.61,.74-.68,1.18h4Zm11.76-.2c-.27-.36-.61-.65-1.02-.86-.41-.23-.87-.34-1.38-.34-.39,0-.73,.07-1.04,.22-.31,.15-.57,.35-.78,.6-.21,.24-.38,.52-.5,.84-.12,.32-.18,.65-.18,1,0,.39,.06,.74,.18,1.06,.13,.32,.31,.6,.54,.84,.24,.23,.51,.41,.82,.54,.32,.13,.66,.2,1.02,.2,.49,0,.94-.11,1.34-.32,.41-.23,.75-.52,1-.88v-2.9Zm2.6,6.3h-2.5v-.78c-.4,.35-.83,.6-1.28,.76-.45,.15-.93,.22-1.42,.22-.72,0-1.41-.15-2.06-.44-.64-.29-1.17-.69-1.6-1.2-.39-.44-.69-.95-.92-1.52-.21-.59-.32-1.21-.32-1.88,0-.72,.12-1.39,.36-2,.25-.61,.59-1.15,1.02-1.6,.44-.45,.95-.81,1.52-1.06,.57-.27,1.19-.4,1.86-.4,.56,0,1.07,.09,1.54,.26,.48,.17,.91,.41,1.3,.72v-.78h2.5v9.7Zm9.7-6.3c-.27-.36-.61-.65-1.02-.86-.41-.23-.87-.34-1.38-.34-.39,0-.73,.07-1.04,.22-.31,.15-.57,.35-.78,.6-.21,.24-.38,.52-.5,.84-.12,.32-.18,.65-.18,1,0,.39,.06,.74,.18,1.06,.13,.32,.31,.6,.54,.84,.24,.23,.51,.41,.82,.54,.32,.13,.66,.2,1.02,.2,.49,0,.94-.11,1.34-.32,.41-.23,.75-.52,1-.88v-2.9Zm.1,6.3v-.78c-.4,.35-.83,.6-1.28,.76-.45,.15-.93,.22-1.42,.22-.72,0-1.41-.15-2.06-.44-.64-.29-1.17-.69-1.6-1.2-.39-.44-.69-.95-.92-1.52-.21-.59-.32-1.21-.32-1.88,0-.72,.12-1.39,.36-2,.25-.61,.59-1.15,1.02-1.6,.44-.45,.95-.81,1.52-1.06,.57-.27,1.19-.4,1.86-.4,1.07,0,1.98,.3,2.74,.9v-5.2h2.6v14.2h-2.5Zm13.76-1.54c-.47,.56-1.06,.99-1.78,1.3-.71,.29-1.44,.44-2.2,.44-.72,0-1.39-.12-2.02-.36-.61-.24-1.15-.58-1.6-1.02-.45-.44-.81-.97-1.08-1.58-.25-.63-.38-1.32-.38-2.08,0-.68,.11-1.32,.32-1.92,.23-.61,.55-1.15,.96-1.62,.41-.47,.91-.83,1.48-1.1,.59-.28,1.24-.42,1.96-.42,.67,0,1.28,.13,1.84,.4s1.04,.63,1.44,1.08c.41,.44,.73,.96,.96,1.56,.23,.6,.34,1.24,.34,1.92,0,.28-.02,.53-.06,.74h-6.72c.04,.35,.13,.66,.28,.94,.15,.28,.33,.52,.56,.72,.24,.2,.51,.36,.8,.48,.31,.11,.63,.16,.98,.16,.56,0,1.05-.12,1.46-.36,.43-.25,.75-.51,.98-.76l1.48,1.48Zm-2.42-4.56c-.03-.21-.09-.42-.2-.62-.09-.21-.23-.4-.4-.56-.16-.16-.35-.29-.58-.38-.23-.09-.47-.14-.74-.14-.55,0-1.01,.17-1.4,.52s-.61,.74-.68,1.18h4Zm10.76-1.3c-.09-.03-.23-.05-.4-.06-.17-.03-.35-.04-.54-.04-.28,0-.55,.05-.8,.14-.25,.09-.49,.21-.7,.36-.2,.13-.37,.28-.52,.44-.15,.16-.26,.31-.34,.46v6.1h-2.6v-9.7h2.5v.98c.29-.36,.69-.65,1.18-.86,.49-.21,1.04-.32,1.64-.32,.19,0,.34,0,.46,.02,.13,.01,.27,.03,.42,.06l-.3,2.42Zm2.6,4.44c.33,.31,.73,.55,1.2,.72,.48,.16,.97,.24,1.46,.24,.35,0,.64-.07,.88-.22,.24-.16,.36-.36,.36-.6s-.12-.43-.36-.58c-.23-.16-.51-.3-.86-.42-.35-.13-.73-.27-1.14-.4-.4-.15-.77-.33-1.12-.54-.35-.23-.64-.51-.88-.84-.23-.33-.34-.76-.34-1.28,0-.47,.1-.89,.3-1.26,.21-.37,.49-.69,.84-.94,.35-.27,.74-.47,1.18-.6,.45-.15,.92-.22,1.4-.22,.32,0,.64,.03,.96,.08,.32,.05,.62,.13,.9,.22,.29,.09,.56,.2,.8,.32,.25,.12,.46,.24,.62,.36l-1.22,1.88c-.25-.19-.54-.34-.86-.46-.32-.13-.65-.2-1-.2s-.67,.07-.94,.2c-.25,.13-.38,.33-.38,.58,0,.21,.11,.39,.34,.52,.24,.12,.53,.24,.88,.36,.35,.12,.72,.25,1.12,.4,.41,.13,.79,.32,1.14,.56,.35,.24,.63,.54,.86,.9,.24,.36,.36,.82,.36,1.38,0,.47-.11,.89-.32,1.26-.21,.36-.5,.67-.86,.94-.35,.25-.75,.45-1.22,.6-.47,.13-.95,.2-1.46,.2-.68,0-1.36-.11-2.04-.32-.67-.23-1.29-.55-1.86-.98l1.26-1.86Z"/><path d="M223.94,418c.8,0,1.43,.09,1.9,.26,.48,.17,.89,.41,1.24,.72,.39,.35,.7,.76,.94,1.24,.24,.48,.36,1.01,.36,1.58,0,.47-.09,.91-.28,1.34-.19,.43-.39,.76-.62,1,.63,.31,1.13,.79,1.52,1.44,.39,.64,.58,1.35,.58,2.14,0,.6-.12,1.16-.36,1.68-.23,.51-.53,.95-.92,1.34-.39,.39-.87,.69-1.44,.92s-1.31,.34-2.22,.34h-5.46v-14h4.76Zm-2.06,5.4h1.9c.43,0,.75-.05,.96-.14,.21-.09,.39-.21,.54-.36,.12-.13,.21-.29,.28-.46,.08-.17,.12-.35,.12-.54s-.04-.37-.12-.54c-.07-.17-.16-.33-.28-.46-.15-.15-.33-.27-.54-.36-.21-.09-.53-.14-.96-.14h-1.9v3Zm2.7,6.2c.47,0,.84-.05,1.12-.16,.28-.12,.51-.27,.68-.46,.33-.36,.5-.79,.5-1.28s-.17-.92-.5-1.28c-.17-.19-.4-.33-.68-.44-.28-.12-.65-.18-1.12-.18h-2.7v3.8h2.7Zm12.9-5c-.09-.03-.23-.05-.4-.06-.17-.03-.35-.04-.54-.04-.28,0-.55,.05-.8,.14-.25,.09-.49,.21-.7,.36-.2,.13-.37,.28-.52,.44s-.26,.31-.34,.46v6.1h-2.6v-9.7h2.5v.98c.29-.36,.69-.65,1.18-.86,.49-.21,1.04-.32,1.64-.32,.19,0,.34,0,.46,.02,.13,.01,.27,.03,.42,.06l-.3,2.42Zm1.21,2.56c0-.69,.13-1.35,.38-1.96,.27-.63,.63-1.17,1.08-1.62,.47-.45,1.01-.81,1.64-1.08,.64-.27,1.33-.4,2.06-.4s1.41,.13,2.04,.4c.64,.27,1.19,.63,1.64,1.08,.47,.45,.83,.99,1.08,1.62,.27,.61,.4,1.27,.4,1.96s-.13,1.37-.4,1.98c-.25,.6-.61,1.13-1.08,1.6-.45,.45-1,.81-1.64,1.08-.63,.25-1.31,.38-2.04,.38s-1.42-.13-2.06-.38c-.63-.27-1.17-.63-1.64-1.08-.45-.47-.81-1-1.08-1.6-.25-.61-.38-1.27-.38-1.98Zm2.6,0c0,.36,.06,.7,.18,1.02,.13,.32,.31,.6,.52,.84,.23,.24,.49,.43,.8,.58,.32,.13,.67,.2,1.06,.2s.72-.07,1.04-.2c.32-.15,.59-.34,.8-.58,.23-.24,.4-.52,.52-.84,.13-.32,.2-.66,.2-1.02s-.07-.7-.2-1.02c-.12-.33-.29-.62-.52-.86-.21-.24-.48-.43-.8-.56-.32-.15-.67-.22-1.04-.22s-.74,.07-1.06,.22c-.31,.13-.57,.32-.8,.56-.21,.24-.39,.53-.52,.86-.12,.32-.18,.66-.18,1.02Zm16.81-1.46c-.27-.36-.61-.65-1.02-.86-.41-.23-.87-.34-1.38-.34-.39,0-.73,.07-1.04,.22-.31,.15-.57,.35-.78,.6-.21,.24-.38,.52-.5,.84s-.18,.65-.18,1c0,.39,.06,.74,.18,1.06,.13,.32,.31,.6,.54,.84,.24,.23,.51,.41,.82,.54,.32,.13,.66,.2,1.02,.2,.49,0,.94-.11,1.34-.32,.41-.23,.75-.52,1-.88v-2.9Zm2.6,6.3h-2.5v-.78c-.4,.35-.83,.6-1.28,.76-.45,.15-.93,.22-1.42,.22-.72,0-1.41-.15-2.06-.44-.64-.29-1.17-.69-1.6-1.2-.39-.44-.69-.95-.92-1.52-.21-.59-.32-1.21-.32-1.88,0-.72,.12-1.39,.36-2,.25-.61,.59-1.15,1.02-1.6,.44-.45,.95-.81,1.52-1.06,.57-.27,1.19-.4,1.86-.4,.56,0,1.07,.09,1.54,.26,.48,.17,.91,.41,1.3,.72v-.78h2.5v9.7Zm9.7-6.3c-.27-.36-.61-.65-1.02-.86-.41-.23-.87-.34-1.38-.34-.39,0-.73,.07-1.04,.22s-.57,.35-.78,.6c-.21,.24-.38,.52-.5,.84s-.18,.65-.18,1c0,.39,.06,.74,.18,1.06,.13,.32,.31,.6,.54,.84,.24,.23,.51,.41,.82,.54,.32,.13,.66,.2,1.02,.2,.49,0,.94-.11,1.34-.32,.41-.23,.75-.52,1-.88v-2.9Zm.1,6.3v-.78c-.4,.35-.83,.6-1.28,.76-.45,.15-.93,.22-1.42,.22-.72,0-1.41-.15-2.06-.44-.64-.29-1.17-.69-1.6-1.2-.39-.44-.69-.95-.92-1.52-.21-.59-.32-1.21-.32-1.88,0-.72,.12-1.39,.36-2,.25-.61,.59-1.15,1.02-1.6,.44-.45,.95-.81,1.52-1.06,.57-.27,1.19-.4,1.86-.4,1.07,0,1.98,.3,2.74,.9v-5.2h2.6v14.2h-2.5Zm13.76-1.54c-.47,.56-1.06,.99-1.78,1.3-.71,.29-1.44,.44-2.2,.44-.72,0-1.39-.12-2.02-.36-.61-.24-1.15-.58-1.6-1.02-.45-.44-.81-.97-1.08-1.58-.25-.63-.38-1.32-.38-2.08,0-.68,.11-1.32,.32-1.92,.23-.61,.55-1.15,.96-1.62,.41-.47,.91-.83,1.48-1.1,.59-.28,1.24-.42,1.96-.42,.67,0,1.28,.13,1.84,.4,.56,.27,1.04,.63,1.44,1.08,.41,.44,.73,.96,.96,1.56,.23,.6,.34,1.24,.34,1.92,0,.28-.02,.53-.06,.74h-6.72c.04,.35,.13,.66,.28,.94,.15,.28,.33,.52,.56,.72,.24,.2,.51,.36,.8,.48,.31,.11,.63,.16,.98,.16,.56,0,1.05-.12,1.46-.36,.43-.25,.75-.51,.98-.76l1.48,1.48Zm-2.42-4.56c-.03-.21-.09-.42-.2-.62-.09-.21-.23-.4-.4-.56-.16-.16-.35-.29-.58-.38-.23-.09-.47-.14-.74-.14-.55,0-1.01,.17-1.4,.52-.39,.35-.61,.74-.68,1.18h4Zm10.76-1.3c-.09-.03-.23-.05-.4-.06-.17-.03-.35-.04-.54-.04-.28,0-.55,.05-.8,.14-.25,.09-.49,.21-.7,.36-.2,.13-.37,.28-.52,.44-.15,.16-.26,.31-.34,.46v6.1h-2.6v-9.7h2.5v.98c.29-.36,.69-.65,1.18-.86,.49-.21,1.04-.32,1.64-.32,.19,0,.34,0,.46,.02,.13,.01,.27,.03,.42,.06l-.3,2.42Zm-98.1,25.4c0,.67,.11,1.29,.34,1.88,.24,.57,.56,1.08,.96,1.52,.41,.43,.9,.77,1.46,1.02,.56,.25,1.17,.38,1.84,.38s1.26-.13,1.82-.38c.57-.25,1.06-.59,1.46-1.02,.41-.44,.73-.95,.96-1.52,.24-.59,.36-1.21,.36-1.88s-.12-1.27-.36-1.86c-.23-.59-.55-1.09-.96-1.52-.4-.44-.89-.79-1.46-1.04-.56-.25-1.17-.38-1.82-.38s-1.28,.13-1.84,.38c-.56,.25-1.05,.6-1.46,1.04-.4,.43-.72,.93-.96,1.52-.23,.59-.34,1.21-.34,1.86Zm-2.7,0c0-1,.17-1.93,.52-2.8,.36-.88,.86-1.64,1.5-2.28,.65-.65,1.43-1.17,2.32-1.54,.89-.39,1.88-.58,2.96-.58s2.07,.19,2.96,.58c.89,.37,1.66,.89,2.3,1.54,.65,.64,1.15,1.4,1.5,2.28,.36,.87,.54,1.8,.54,2.8s-.18,1.94-.54,2.82c-.35,.87-.85,1.63-1.5,2.28-.64,.64-1.41,1.15-2.3,1.54-.89,.37-1.88,.56-2.96,.56s-2.07-.19-2.96-.56c-.89-.39-1.67-.9-2.32-1.54-.64-.65-1.14-1.41-1.5-2.28-.35-.88-.52-1.82-.52-2.82Zm22.6-.4c-.09-.03-.23-.05-.4-.06-.17-.03-.35-.04-.54-.04-.28,0-.55,.05-.8,.14-.25,.09-.49,.21-.7,.36-.2,.13-.37,.28-.52,.44-.15,.16-.26,.31-.34,.46v6.1h-2.6v-9.7h2.5v.98c.29-.36,.69-.65,1.18-.86,.49-.21,1.04-.32,1.64-.32,.19,0,.34,0,.46,.02,.13,.01,.27,.03,.42,.06l-.3,2.42Zm11.31,6.86c0,.88-.07,1.59-.22,2.14-.15,.56-.37,1.05-.66,1.46-.44,.61-1.03,1.09-1.78,1.42-.75,.35-1.59,.52-2.52,.52-.48,0-.95-.05-1.4-.16-.45-.09-.88-.23-1.28-.42-.4-.17-.77-.39-1.12-.64-.33-.24-.62-.5-.86-.78l1.64-1.7c.13,.15,.29,.3,.46,.46,.19,.16,.4,.31,.64,.44,.25,.15,.53,.27,.84,.36,.32,.09,.68,.14,1.08,.14,.43,0,.81-.07,1.14-.2,.33-.12,.61-.31,.84-.58,.2-.23,.35-.51,.44-.84,.11-.33,.16-.81,.16-1.44v-.32c-.76,.59-1.63,.88-2.6,.88-.72,0-1.41-.15-2.06-.44-.65-.29-1.19-.69-1.62-1.2-.39-.44-.69-.95-.9-1.52-.21-.59-.32-1.21-.32-1.88,0-.72,.12-1.39,.36-2,.25-.61,.59-1.15,1.02-1.6,.44-.45,.95-.81,1.52-1.06,.57-.27,1.19-.4,1.86-.4,.56,0,1.07,.09,1.54,.26,.48,.17,.91,.41,1.3,.72v-.78h2.5v9.16Zm-2.6-5.76c-.27-.36-.61-.65-1.02-.86-.41-.23-.87-.34-1.38-.34-.39,0-.73,.07-1.04,.22-.31,.15-.57,.35-.78,.6-.21,.24-.38,.52-.5,.84-.12,.32-.18,.65-.18,1,0,.39,.06,.74,.18,1.06,.13,.32,.31,.6,.54,.84,.24,.23,.51,.41,.82,.54,.32,.13,.66,.2,1.02,.2,.49,0,.94-.11,1.34-.32,.41-.23,.75-.52,1-.88v-2.9Zm12.31,0c-.27-.36-.61-.65-1.02-.86-.41-.23-.87-.34-1.38-.34-.39,0-.73,.07-1.04,.22-.31,.15-.57,.35-.78,.6-.21,.24-.38,.52-.5,.84s-.18,.65-.18,1c0,.39,.06,.74,.18,1.06,.13,.32,.31,.6,.54,.84,.24,.23,.51,.41,.82,.54,.32,.13,.66,.2,1.02,.2,.49,0,.94-.11,1.34-.32,.41-.23,.75-.52,1-.88v-2.9Zm2.6,6.3h-2.5v-.78c-.4,.35-.83,.6-1.28,.76-.45,.15-.93,.22-1.42,.22-.72,0-1.41-.15-2.06-.44-.64-.29-1.17-.69-1.6-1.2-.39-.44-.69-.95-.92-1.52-.21-.59-.32-1.21-.32-1.88,0-.72,.12-1.39,.36-2,.25-.61,.59-1.15,1.02-1.6,.44-.45,.95-.81,1.52-1.06,.57-.27,1.19-.4,1.86-.4,.56,0,1.07,.09,1.54,.26,.48,.17,.91,.41,1.3,.72v-.78h2.5v9.7Zm3,0v-9.7h2.5v.78c.37-.31,.79-.55,1.24-.72,.45-.17,.95-.26,1.5-.26,.68,0,1.31,.14,1.88,.42,.59,.28,1.08,.66,1.48,1.14,.32,.39,.57,.84,.74,1.36,.17,.52,.26,1.2,.26,2.04v4.94h-2.6v-5.14c0-.48-.05-.85-.16-1.12-.09-.28-.23-.51-.42-.7-.36-.36-.85-.54-1.46-.54-.28,0-.55,.04-.8,.12-.24,.08-.46,.18-.66,.3-.2,.12-.38,.25-.54,.4-.15,.13-.27,.26-.36,.38v6.3h-2.6Zm15,0h-2.6v-9.7h2.6v9.7Zm-3-13.14c0-.47,.17-.86,.5-1.18,.33-.32,.73-.48,1.2-.48s.87,.16,1.2,.48c.33,.32,.5,.71,.5,1.18s-.17,.86-.5,1.18c-.33,.32-.73,.48-1.2,.48s-.87-.16-1.2-.48c-.33-.32-.5-.71-.5-1.18Zm13.71,5.04l-4.7,5.9h5.1v2.2h-8.6v-1.6l4.64-5.9h-4.24v-2.2h7.8v1.6Zm9.31,1.8c-.27-.36-.61-.65-1.02-.86-.41-.23-.87-.34-1.38-.34-.39,0-.73,.07-1.04,.22-.31,.15-.57,.35-.78,.6-.21,.24-.38,.52-.5,.84-.12,.32-.18,.65-.18,1,0,.39,.06,.74,.18,1.06,.13,.32,.31,.6,.54,.84,.24,.23,.51,.41,.82,.54,.32,.13,.66,.2,1.02,.2,.49,0,.94-.11,1.34-.32,.41-.23,.75-.52,1-.88v-2.9Zm2.6,6.3h-2.5v-.78c-.4,.35-.83,.6-1.28,.76-.45,.15-.93,.22-1.42,.22-.72,0-1.41-.15-2.06-.44-.64-.29-1.17-.69-1.6-1.2-.39-.44-.69-.95-.92-1.52-.21-.59-.32-1.21-.32-1.88,0-.72,.12-1.39,.36-2,.25-.61,.59-1.15,1.02-1.6,.44-.45,.95-.81,1.52-1.06,.57-.27,1.19-.4,1.86-.4,.56,0,1.07,.09,1.54,.26,.48,.17,.91,.41,1.3,.72v-.78h2.5v9.7Zm10.3,0c-.17,.07-.43,.11-.76,.14-.32,.04-.61,.06-.86,.06-.79,0-1.46-.12-2.02-.36-.56-.25-1.01-.6-1.34-1.04-.25-.33-.44-.73-.56-1.18-.11-.45-.16-1.03-.16-1.72v-3.4h-2.7v-2.2h2.7v-2.7h2.6v2.7h3.2v2.2h-3.2v3.7c0,.31,.03,.55,.08,.74,.05,.19,.13,.35,.24,.48,.13,.15,.31,.27,.52,.36,.21,.08,.48,.12,.8,.12,.19,0,.39,0,.6-.02,.21-.03,.37-.05,.46-.08l.4,2.2Zm5.2,0h-2.6v-9.7h2.6v9.7Zm-3-13.14c0-.47,.17-.86,.5-1.18,.33-.32,.73-.48,1.2-.48s.87,.16,1.2,.48c.33,.32,.5,.71,.5,1.18s-.17,.86-.5,1.18c-.33,.32-.73,.48-1.2,.48s-.87-.16-1.2-.48c-.33-.32-.5-.71-.5-1.18Zm5.2,8.3c0-.69,.13-1.35,.38-1.96,.27-.63,.63-1.17,1.08-1.62,.47-.45,1.01-.81,1.64-1.08,.64-.27,1.33-.4,2.06-.4s1.41,.13,2.04,.4c.64,.27,1.19,.63,1.64,1.08,.47,.45,.83,.99,1.08,1.62,.27,.61,.4,1.27,.4,1.96s-.13,1.37-.4,1.98c-.25,.6-.61,1.13-1.08,1.6-.45,.45-1,.81-1.64,1.08-.63,.25-1.31,.38-2.04,.38s-1.42-.13-2.06-.38c-.63-.27-1.17-.63-1.64-1.08-.45-.47-.81-1-1.08-1.6-.25-.61-.38-1.27-.38-1.98Zm2.6,0c0,.36,.06,.7,.18,1.02,.13,.32,.31,.6,.52,.84,.23,.24,.49,.43,.8,.58,.32,.13,.67,.2,1.06,.2s.72-.07,1.04-.2c.32-.15,.59-.34,.8-.58,.23-.24,.4-.52,.52-.84,.13-.32,.2-.66,.2-1.02s-.07-.7-.2-1.02c-.12-.33-.29-.62-.52-.86-.21-.24-.48-.43-.8-.56-.32-.15-.67-.22-1.04-.22s-.74,.07-1.06,.22c-.31,.13-.57,.32-.8,.56-.21,.24-.39,.53-.52,.86-.12,.32-.18,.66-.18,1.02Zm9.92,4.84v-9.7h2.5v.78c.37-.31,.79-.55,1.24-.72,.45-.17,.95-.26,1.5-.26,.68,0,1.31,.14,1.88,.42,.59,.28,1.08,.66,1.48,1.14,.32,.39,.57,.84,.74,1.36,.17,.52,.26,1.2,.26,2.04v4.94h-2.6v-5.14c0-.48-.05-.85-.16-1.12-.09-.28-.23-.51-.42-.7-.36-.36-.85-.54-1.46-.54-.28,0-.55,.04-.8,.12-.24,.08-.46,.18-.66,.3-.2,.12-.38,.25-.54,.4-.15,.13-.27,.26-.36,.38v6.3h-2.6Z"/><path d="M511.67,438.3v5.7h-2.7v-14h5.26c.91,0,1.64,.11,2.2,.32,.57,.21,1.05,.53,1.44,.94,.35,.36,.61,.79,.8,1.3,.2,.51,.3,1.04,.3,1.6s-.1,1.09-.3,1.6c-.19,.51-.45,.94-.8,1.3-.39,.4-.87,.71-1.44,.92-.56,.21-1.29,.32-2.2,.32h-2.56Zm2.44-2.4c.47,0,.83-.05,1.08-.14,.25-.11,.46-.25,.62-.42,.31-.33,.46-.73,.46-1.18s-.15-.87-.46-1.2c-.16-.17-.37-.31-.62-.4-.25-.11-.61-.16-1.08-.16h-2.44v3.5h2.44Zm12.65,.7c-.09-.03-.23-.05-.4-.06-.17-.03-.35-.04-.54-.04-.28,0-.55,.05-.8,.14-.25,.09-.49,.21-.7,.36-.2,.13-.37,.28-.52,.44-.15,.16-.26,.31-.34,.46v6.1h-2.6v-9.7h2.5v.98c.29-.36,.69-.65,1.18-.86,.49-.21,1.04-.32,1.64-.32,.19,0,.34,0,.46,.02,.13,.01,.27,.03,.42,.06l-.3,2.42Zm8.71,1.1c-.27-.36-.61-.65-1.02-.86-.41-.23-.87-.34-1.38-.34-.39,0-.73,.07-1.04,.22-.31,.15-.57,.35-.78,.6-.21,.24-.38,.52-.5,.84s-.18,.65-.18,1c0,.39,.06,.74,.18,1.06,.13,.32,.31,.6,.54,.84,.24,.23,.51,.41,.82,.54,.32,.13,.66,.2,1.02,.2,.49,0,.94-.11,1.34-.32,.41-.23,.75-.52,1-.88v-2.9Zm2.6,6.3h-2.5v-.78c-.4,.35-.83,.6-1.28,.76-.45,.15-.93,.22-1.42,.22-.72,0-1.41-.15-2.06-.44-.64-.29-1.17-.69-1.6-1.2-.39-.44-.69-.95-.92-1.52-.21-.59-.32-1.21-.32-1.88,0-.72,.12-1.39,.36-2,.25-.61,.59-1.15,1.02-1.6,.44-.45,.95-.81,1.52-1.06,.57-.27,1.19-.4,1.86-.4,.56,0,1.07,.09,1.54,.26,.48,.17,.91,.41,1.3,.72v-.78h2.5v9.7Zm11.8-1.98c-.57,.76-1.22,1.31-1.94,1.66-.72,.35-1.54,.52-2.46,.52-.75,0-1.44-.13-2.08-.38-.64-.27-1.19-.63-1.66-1.08-.45-.47-.81-1-1.08-1.6-.25-.61-.38-1.27-.38-1.98s.13-1.37,.4-1.98c.27-.61,.63-1.15,1.1-1.6,.47-.47,1.01-.83,1.64-1.08,.64-.27,1.33-.4,2.08-.4,.84,0,1.61,.18,2.32,.54,.72,.35,1.31,.81,1.76,1.4l-1.84,1.62c-.27-.35-.59-.63-.98-.84-.37-.21-.79-.32-1.26-.32-.37,0-.72,.07-1.04,.22-.32,.13-.6,.32-.84,.56-.23,.24-.41,.52-.54,.84-.13,.32-.2,.67-.2,1.04s.07,.74,.2,1.06c.13,.32,.31,.6,.54,.84,.24,.23,.52,.41,.84,.54,.33,.13,.7,.2,1.1,.2,.53,0,1-.13,1.4-.4,.4-.27,.71-.56,.92-.88l2,1.5Zm9.3,1.98c-.17,.07-.43,.11-.76,.14-.32,.04-.61,.06-.86,.06-.79,0-1.46-.12-2.02-.36-.56-.25-1.01-.6-1.34-1.04-.25-.33-.44-.73-.56-1.18-.11-.45-.16-1.03-.16-1.72v-3.4h-2.7v-2.2h2.7v-2.7h2.6v2.7h3.2v2.2h-3.2v3.7c0,.31,.03,.55,.08,.74,.05,.19,.13,.35,.24,.48,.13,.15,.31,.27,.52,.36,.21,.08,.48,.12,.8,.12,.19,0,.39,0,.6-.02,.21-.03,.37-.05,.46-.08l.4,2.2Zm5.2,0h-2.6v-9.7h2.6v9.7Zm-3-13.14c0-.47,.17-.86,.5-1.18s.73-.48,1.2-.48,.87,.16,1.2,.48c.33,.32,.5,.71,.5,1.18s-.17,.86-.5,1.18c-.33,.32-.73,.48-1.2,.48s-.87-.16-1.2-.48c-.33-.32-.5-.71-.5-1.18Zm13.31,13.14c-.17,.07-.43,.11-.76,.14-.32,.04-.61,.06-.86,.06-.79,0-1.46-.12-2.02-.36-.56-.25-1.01-.6-1.34-1.04-.25-.33-.44-.73-.56-1.18-.11-.45-.16-1.03-.16-1.72v-3.4h-2.7v-2.2h2.7v-2.7h2.6v2.7h3.2v2.2h-3.2v3.7c0,.31,.03,.55,.08,.74,.05,.19,.13,.35,.24,.48,.13,.15,.31,.27,.52,.36,.21,.08,.48,.12,.8,.12,.19,0,.39,0,.6-.02,.21-.03,.37-.05,.46-.08l.4,2.2Zm5.2,0h-2.6v-9.7h2.6v9.7Zm-3-13.14c0-.47,.17-.86,.5-1.18s.73-.48,1.2-.48,.87,.16,1.2,.48c.33,.32,.5,.71,.5,1.18s-.17,.86-.5,1.18c-.33,.32-.73,.48-1.2,.48s-.87-.16-1.2-.48c-.33-.32-.5-.71-.5-1.18Zm5.21,8.3c0-.69,.13-1.35,.38-1.96,.27-.63,.63-1.17,1.08-1.62,.47-.45,1.01-.81,1.64-1.08,.64-.27,1.33-.4,2.06-.4s1.41,.13,2.04,.4c.64,.27,1.19,.63,1.64,1.08,.47,.45,.83,.99,1.08,1.62,.27,.61,.4,1.27,.4,1.96s-.13,1.37-.4,1.98c-.25,.6-.61,1.13-1.08,1.6-.45,.45-1,.81-1.64,1.08-.63,.25-1.31,.38-2.04,.38s-1.42-.13-2.06-.38c-.63-.27-1.17-.63-1.64-1.08-.45-.47-.81-1-1.08-1.6-.25-.61-.38-1.27-.38-1.98Zm2.6,0c0,.36,.06,.7,.18,1.02,.13,.32,.31,.6,.52,.84,.23,.24,.49,.43,.8,.58,.32,.13,.67,.2,1.06,.2s.72-.07,1.04-.2c.32-.15,.59-.34,.8-.58,.23-.24,.4-.52,.52-.84,.13-.32,.2-.66,.2-1.02s-.07-.7-.2-1.02c-.12-.33-.29-.62-.52-.86-.21-.24-.48-.43-.8-.56-.32-.15-.67-.22-1.04-.22s-.74,.07-1.06,.22c-.31,.13-.57,.32-.8,.56-.21,.24-.39,.53-.52,.86-.12,.32-.18,.66-.18,1.02Zm9.92,4.84v-9.7h2.5v.78c.37-.31,.79-.55,1.24-.72,.45-.17,.95-.26,1.5-.26,.68,0,1.31,.14,1.88,.42,.59,.28,1.08,.66,1.48,1.14,.32,.39,.57,.84,.74,1.36,.17,.52,.26,1.2,.26,2.04v4.94h-2.6v-5.14c0-.48-.05-.85-.16-1.12-.09-.28-.23-.51-.42-.7-.36-.36-.85-.54-1.46-.54-.28,0-.55,.04-.8,.12-.24,.08-.46,.18-.66,.3-.2,.12-.38,.25-.54,.4-.15,.13-.27,.26-.36,.38v6.3h-2.6Zm20.66-1.54c-.47,.56-1.06,.99-1.78,1.3-.71,.29-1.44,.44-2.2,.44-.72,0-1.39-.12-2.02-.36-.61-.24-1.15-.58-1.6-1.02-.45-.44-.81-.97-1.08-1.58-.25-.63-.38-1.32-.38-2.08,0-.68,.11-1.32,.32-1.92,.23-.61,.55-1.15,.96-1.62,.41-.47,.91-.83,1.48-1.1,.59-.28,1.24-.42,1.96-.42,.67,0,1.28,.13,1.84,.4,.56,.27,1.04,.63,1.44,1.08,.41,.44,.73,.96,.96,1.56,.23,.6,.34,1.24,.34,1.92,0,.28-.02,.53-.06,.74h-6.72c.04,.35,.13,.66,.28,.94,.15,.28,.33,.52,.56,.72,.24,.2,.51,.36,.8,.48,.31,.11,.63,.16,.98,.16,.56,0,1.05-.12,1.46-.36,.43-.25,.75-.51,.98-.76l1.48,1.48Zm-2.42-4.56c-.03-.21-.09-.42-.2-.62-.09-.21-.23-.4-.4-.56-.16-.16-.35-.29-.58-.38-.23-.09-.47-.14-.74-.14-.55,0-1.01,.17-1.4,.52-.39,.35-.61,.74-.68,1.18h4Zm10.76-1.3c-.09-.03-.23-.05-.4-.06-.17-.03-.35-.04-.54-.04-.28,0-.55,.05-.8,.14-.25,.09-.49,.21-.7,.36-.2,.13-.37,.28-.52,.44-.15,.16-.26,.31-.34,.46v6.1h-2.6v-9.7h2.5v.98c.29-.36,.69-.65,1.18-.86,.49-.21,1.04-.32,1.64-.32,.19,0,.34,0,.46,.02,.13,.01,.27,.03,.42,.06l-.3,2.42Zm2.6,4.44c.33,.31,.73,.55,1.2,.72,.48,.16,.97,.24,1.46,.24,.35,0,.64-.07,.88-.22,.24-.16,.36-.36,.36-.6s-.12-.43-.36-.58c-.23-.16-.51-.3-.86-.42-.35-.13-.73-.27-1.14-.4-.4-.15-.77-.33-1.12-.54-.35-.23-.64-.51-.88-.84-.23-.33-.34-.76-.34-1.28,0-.47,.1-.89,.3-1.26,.21-.37,.49-.69,.84-.94,.35-.27,.74-.47,1.18-.6,.45-.15,.92-.22,1.4-.22,.32,0,.64,.03,.96,.08,.32,.05,.62,.13,.9,.22,.29,.09,.56,.2,.8,.32,.25,.12,.46,.24,.62,.36l-1.22,1.88c-.25-.19-.54-.34-.86-.46-.32-.13-.65-.2-1-.2s-.67,.07-.94,.2c-.25,.13-.38,.33-.38,.58,0,.21,.11,.39,.34,.52,.24,.12,.53,.24,.88,.36,.35,.12,.72,.25,1.12,.4,.41,.13,.79,.32,1.14,.56,.35,.24,.63,.54,.86,.9,.24,.36,.36,.82,.36,1.38,0,.47-.11,.89-.32,1.26-.21,.36-.5,.67-.86,.94-.35,.25-.75,.45-1.22,.6-.47,.13-.95,.2-1.46,.2-.68,0-1.36-.11-2.04-.32-.67-.23-1.29-.55-1.86-.98l1.26-1.86Z"/><path class="cls-3" d="M356,437h117"/><path class="cls-3" d="M457.6,252.7l58.5,101.32"/><path class="cls-3" d="M360.6,252.7l-58.5,101.32"/><circle class="cls-1" cx="473" cy="437" r="3"/><circle class="cls-1" cx="516.1" cy="354.02" r="3"/><circle class="cls-1" cx="302.1" cy="354.02" r="3"/><circle class="cls-1" cx="353" cy="437" r="3"/><circle class="cls-1" cx="456.1" cy="250.1" r="3"/><circle class="cls-1" cx="362.1" cy="250.1" r="3"/></svg>